<svg width="17" height="12" viewBox="0 0 17 12" fill="none" xmlns="http://www.w3.org/2000/svg">
<path d="M8.49974 7.24524C8.30031 7.24557 8.10603 7.18367 7.94549 7.06863L0.376998 1.63467C0.278525 1.56391 0.195352 1.47498 0.132228 1.37296C0.0691036 1.27094 0.0272649 1.15784 0.00910021 1.0401C-0.027585 0.802317 0.0343866 0.560105 0.181382 0.366747C0.328377 0.17339 0.548355 0.0447247 0.792923 0.00905743C1.03749 -0.0266099 1.28662 0.0336422 1.48549 0.176559L8.49974 5.2075L15.514 0.17656C15.6125 0.105795 15.7243 0.0545799 15.8431 0.02584C15.962 -0.00289994 16.0855 -0.00860237 16.2066 0.00905829C16.3277 0.0267189 16.444 0.0673968 16.5489 0.128769C16.6538 0.190142 16.7453 0.271007 16.8181 0.366748C16.8909 0.462489 16.9436 0.571231 16.9731 0.686765C17.0027 0.802299 17.0085 0.922362 16.9904 1.0401C16.9722 1.15784 16.9304 1.27094 16.8672 1.37296C16.8041 1.47498 16.721 1.56391 16.6225 1.63467L9.05399 7.06863C8.89344 7.18367 8.69917 7.24557 8.49974 7.24524Z" fill="#7AE229"/>
<path d="M8.49998 12.0001C8.30055 12.0005 8.10628 11.9386 7.94574 11.8235L0.377242 6.38955C0.178366 6.24664 0.0460295 6.03276 0.00934435 5.79498C-0.0273408 5.5572 0.0346308 5.31499 0.181626 5.12163C0.328621 4.92827 0.548599 4.79961 0.793167 4.76394C1.03774 4.72827 1.28686 4.78853 1.48574 4.93144L8.49998 9.96239L15.5142 4.93144C15.7131 4.78853 15.9622 4.72827 16.2068 4.76394C16.4514 4.79961 16.6713 4.92827 16.8183 5.12163C16.9653 5.31499 17.0273 5.5572 16.9906 5.79498C16.9539 6.03276 16.8216 6.24664 16.6227 6.38956L9.05423 11.8235C8.89369 11.9386 8.69941 12.0005 8.49998 12.0001Z" fill="#7AE229"/>
</svg>
