<svg width="17" height="12" viewBox="0 0 17 12" fill="none" xmlns="http://www.w3.org/2000/svg">
<path d="M8.50026 4.75476C8.69969 4.75443 8.89397 4.81633 9.05451 4.93137L16.623 10.3653C16.7215 10.4361 16.8047 10.525 16.8678 10.627C16.9309 10.7291 16.9727 10.8422 16.9909 10.9599C17.0276 11.1977 16.9656 11.4399 16.8186 11.6333C16.6716 11.8266 16.4516 11.9553 16.2071 11.9909C15.9625 12.0266 15.7134 11.9664 15.5145 11.8234L8.50026 6.7925L1.48602 11.8234C1.38754 11.8942 1.2757 11.9454 1.15687 11.9742C1.03804 12.0029 0.914547 12.0086 0.793449 11.9909C0.67235 11.9733 0.556017 11.9326 0.45109 11.8712C0.346161 11.8099 0.254692 11.729 0.181908 11.6333C0.109123 11.5375 0.0564461 11.4288 0.026886 11.3132C-0.00267403 11.1977 -0.00853911 11.0776 0.00962457 10.9599C0.0277902 10.8422 0.0696278 10.7291 0.132753 10.627C0.195877 10.525 0.279051 10.4361 0.377525 10.3653L7.94602 4.93137C8.10656 4.81633 8.30083 4.75443 8.50026 4.75476Z" fill="#FF3D00"/>
<path d="M8.50002 -0.000120733C8.69945 -0.000454978 8.89373 0.061448 9.05427 0.176483L16.6228 5.61045C16.8216 5.75336 16.954 5.96724 16.9907 6.20502C17.0273 6.4428 16.9654 6.68501 16.8184 6.87837C16.6714 7.07173 16.4514 7.20039 16.2068 7.23606C15.9623 7.27173 15.7131 7.21148 15.5143 7.06856L8.50002 2.03761L1.48577 7.06856C1.2869 7.21147 1.03777 7.27173 0.793205 7.23606C0.548635 7.20039 0.328659 7.07173 0.181663 6.87837C0.034668 6.68501 -0.0273036 6.4428 0.00938043 6.20502C0.0460664 5.96724 0.178404 5.75336 0.377281 5.61044L7.94577 0.176482C8.10631 0.0614479 8.30059 -0.000455013 8.50002 -0.000120733Z" fill="#FF3D00"/>
</svg>
