<svg width="80" height="76" viewBox="0 0 80 76" fill="none" xmlns="http://www.w3.org/2000/svg">
<path d="M46.4615 19.1923L46.4615 35.8077C46.461 36.2972 46.2664 36.7665 45.9203 37.1126C45.5742 37.4587 45.1049 37.6534 44.6154 37.6539L40.9231 37.6539C40.4336 37.6534 39.9643 37.4587 39.6182 37.1126C39.2721 36.7665 39.0774 36.2972 39.0769 35.8077L39.0769 19.1923C39.0774 18.7028 39.2721 18.2335 39.6182 17.8874C39.9643 17.5413 40.4336 17.3467 40.9231 17.3462L44.6154 17.3462C45.1049 17.3467 45.5742 17.5413 45.9203 17.8874C46.2664 18.2335 46.461 18.7028 46.4615 19.1923ZM40.9231 35.8077L44.6154 35.8077L44.6154 19.1923L40.9231 19.1923L40.9231 35.8077ZM40.9231 19.1923L40.9231 35.8077C40.9226 36.2972 40.7279 36.7665 40.3818 37.1126C40.0357 37.4587 39.5664 37.6533 39.0769 37.6538L35.3846 37.6538C34.8951 37.6533 34.4258 37.4587 34.0797 37.1126C33.7336 36.7665 33.539 36.2972 33.5385 35.8077L33.5385 19.1923C33.5389 18.7028 33.7336 18.2335 34.0797 17.8874C34.4258 17.5413 34.8951 17.3466 35.3846 17.3461L39.0769 17.3461C39.5664 17.3466 40.0357 17.5413 40.3818 17.8874C40.7279 18.2335 40.9226 18.7028 40.9231 19.1923ZM35.3846 35.8077L39.0769 35.8077L39.0769 19.1923L35.3846 19.1923L35.3846 35.8077ZM35.3846 19.1923L35.3846 35.8077C35.3841 36.2972 35.1895 36.7665 34.8433 37.1126C34.4972 37.4587 34.0279 37.6533 33.5385 37.6538L29.8462 37.6538C29.3567 37.6533 28.8874 37.4587 28.5413 37.1126C28.1952 36.7665 28.0005 36.2972 28 35.8077L28 19.1923C28.0005 18.7028 28.1951 18.2335 28.5413 17.8874C28.8874 17.5413 29.3567 17.3466 29.8462 17.3461L33.5385 17.3461C34.0279 17.3466 34.4972 17.5413 34.8433 17.8874C35.1895 18.2335 35.3841 18.7028 35.3846 19.1923ZM29.8462 35.8077L33.5385 35.8077L33.5385 19.1923L29.8462 19.1923L29.8462 35.8077Z" fill="#CDCDCD"/>
<path d="M52 19.1925L52 35.8079C51.9995 36.2974 51.8048 36.7667 51.4587 37.1128C51.1126 37.4589 50.6433 37.6536 50.1538 37.6541L46.4615 37.6541C45.9721 37.6536 45.5028 37.4589 45.1567 37.1128C44.8105 36.7667 44.6159 36.2972 44.6154 35.8077L44.6154 19.1923C44.6159 18.7028 44.8105 18.2337 45.1567 17.8876C45.5028 17.5415 45.9721 17.3469 46.4615 17.3464L50.1538 17.3464C50.6433 17.3469 51.1126 17.5415 51.4587 17.8876C51.8048 18.2337 51.9995 18.703 52 19.1925ZM46.4615 35.8077L50.1538 35.8079L50.1538 19.1925L46.4615 19.1923L46.4615 35.8077Z" fill="#CDCDCD"/>
<path d="M21.3672 47.5059H24.1973C25.446 47.5059 26.3848 47.6927 27.0137 48.0664C27.6426 48.4401 27.957 49.0758 27.957 49.9736C27.957 50.361 27.8818 50.7096 27.7314 51.0195C27.5856 51.3249 27.3714 51.5778 27.0889 51.7783C26.8063 51.9788 26.4577 52.1178 26.043 52.1953V52.2637C26.4805 52.332 26.8678 52.4574 27.2051 52.6396C27.5423 52.8219 27.8066 53.0771 27.998 53.4053C28.1895 53.7334 28.2852 54.1504 28.2852 54.6562C28.2852 55.2715 28.1416 55.791 27.8545 56.2148C27.5719 56.6387 27.1709 56.96 26.6514 57.1787C26.1318 57.3929 25.5166 57.5 24.8057 57.5H21.3672V47.5059ZM22.5293 51.792H24.4434C25.3138 51.792 25.9154 51.6484 26.248 51.3613C26.5853 51.0742 26.7539 50.6549 26.7539 50.1035C26.7539 49.5339 26.5534 49.1237 26.1523 48.873C25.7559 48.6224 25.1224 48.4971 24.252 48.4971H22.5293V51.792ZM22.5293 52.7695V56.5088H24.6074C25.4961 56.5088 26.125 56.3356 26.4941 55.9893C26.8633 55.6383 27.0479 55.1667 27.0479 54.5742C27.0479 54.196 26.9635 53.8724 26.7949 53.6035C26.6309 53.3346 26.362 53.1296 25.9883 52.9883C25.6191 52.8424 25.1247 52.7695 24.5049 52.7695H22.5293ZM36.707 53.7402C36.707 54.3555 36.6273 54.9046 36.4678 55.3877C36.3083 55.8708 36.0781 56.2786 35.7773 56.6113C35.4766 56.944 35.112 57.1992 34.6836 57.377C34.2598 57.5501 33.779 57.6367 33.2412 57.6367C32.7399 57.6367 32.2796 57.5501 31.8604 57.377C31.4456 57.1992 31.0856 56.944 30.7803 56.6113C30.4795 56.2786 30.2448 55.8708 30.0762 55.3877C29.9121 54.9046 29.8301 54.3555 29.8301 53.7402C29.8301 52.9199 29.9691 52.2227 30.2471 51.6484C30.5251 51.0697 30.9215 50.6299 31.4365 50.3291C31.9561 50.0238 32.5736 49.8711 33.2891 49.8711C33.9727 49.8711 34.5697 50.0238 35.0801 50.3291C35.5951 50.6344 35.9938 51.0765 36.2764 51.6553C36.5635 52.2295 36.707 52.9245 36.707 53.7402ZM31.0059 53.7402C31.0059 54.3418 31.0856 54.8636 31.2451 55.3057C31.4046 55.7477 31.6507 56.0895 31.9834 56.3311C32.3161 56.5726 32.7445 56.6934 33.2686 56.6934C33.7881 56.6934 34.2142 56.5726 34.5469 56.3311C34.8841 56.0895 35.1325 55.7477 35.292 55.3057C35.4515 54.8636 35.5312 54.3418 35.5312 53.7402C35.5312 53.1432 35.4515 52.6283 35.292 52.1953C35.1325 51.7578 34.8864 51.4206 34.5537 51.1836C34.221 50.9466 33.7904 50.8281 33.2617 50.8281C32.4824 50.8281 31.9105 51.0856 31.5459 51.6006C31.1859 52.1156 31.0059 52.8288 31.0059 53.7402ZM41.4717 49.8848C42.3649 49.8848 43.028 50.0853 43.4609 50.4863C43.8939 50.8874 44.1104 51.5277 44.1104 52.4072V57.5H43.2832L43.0645 56.3926H43.0098C42.8001 56.666 42.5814 56.8962 42.3535 57.083C42.1257 57.2653 41.8613 57.4043 41.5605 57.5C41.2643 57.5911 40.8997 57.6367 40.4668 57.6367C40.0111 57.6367 39.6055 57.557 39.25 57.3975C38.8991 57.238 38.6211 56.9964 38.416 56.6729C38.2155 56.3493 38.1152 55.9391 38.1152 55.4424C38.1152 54.695 38.4115 54.1208 39.0039 53.7197C39.5964 53.3187 40.4987 53.0999 41.7109 53.0635L43.0029 53.0088V52.5508C43.0029 51.9036 42.8639 51.4502 42.5859 51.1904C42.3079 50.9307 41.916 50.8008 41.4102 50.8008C41.0182 50.8008 40.6445 50.8577 40.2891 50.9717C39.9336 51.0856 39.5964 51.2201 39.2773 51.375L38.9287 50.5137C39.266 50.3405 39.6533 50.1924 40.0908 50.0693C40.5283 49.9463 40.9886 49.8848 41.4717 49.8848ZM42.9893 53.8086L41.8477 53.8564C40.9134 53.8929 40.2549 54.0456 39.8721 54.3145C39.4893 54.5833 39.2979 54.9639 39.2979 55.4561C39.2979 55.8844 39.4277 56.2012 39.6875 56.4062C39.9473 56.6113 40.2913 56.7139 40.7197 56.7139C41.3851 56.7139 41.9297 56.5293 42.3535 56.1602C42.7773 55.791 42.9893 55.2373 42.9893 54.499V53.8086ZM49.8525 49.8711C50.0029 49.8711 50.1602 49.8802 50.3242 49.8984C50.4883 49.9121 50.6341 49.9326 50.7617 49.96L50.6182 51.0127C50.4951 50.9808 50.3584 50.9557 50.208 50.9375C50.0576 50.9193 49.9163 50.9102 49.7842 50.9102C49.4834 50.9102 49.1986 50.9717 48.9297 51.0947C48.6654 51.2132 48.4329 51.3864 48.2324 51.6143C48.0319 51.8376 47.8747 52.1087 47.7607 52.4277C47.6468 52.7422 47.5898 53.0931 47.5898 53.4805V57.5H46.4482V50.0078H47.3916L47.5146 51.3887H47.5625C47.7174 51.1107 47.9043 50.8577 48.123 50.6299C48.3418 50.3975 48.5947 50.2129 48.8818 50.0762C49.1735 49.9395 49.4971 49.8711 49.8525 49.8711ZM54.8428 57.6367C53.8949 57.6367 53.1429 57.3132 52.5869 56.666C52.0355 56.0189 51.7598 55.0573 51.7598 53.7812C51.7598 52.4915 52.0423 51.5186 52.6074 50.8623C53.1725 50.2015 53.9245 49.8711 54.8633 49.8711C55.2598 49.8711 55.6061 49.9235 55.9023 50.0283C56.1986 50.1331 56.4538 50.2744 56.668 50.4521C56.8822 50.6253 57.0622 50.8236 57.208 51.0469H57.29C57.2718 50.9056 57.2536 50.7119 57.2354 50.4658C57.2171 50.2197 57.208 50.0192 57.208 49.8643V46.8633H58.3428V57.5H57.4268L57.2559 56.4336H57.208C57.0667 56.6569 56.8867 56.8597 56.668 57.042C56.4538 57.2243 56.1963 57.3701 55.8955 57.4795C55.5993 57.5843 55.2484 57.6367 54.8428 57.6367ZM55.0205 56.6934C55.8226 56.6934 56.39 56.4655 56.7227 56.0098C57.0553 55.554 57.2217 54.8773 57.2217 53.9795V53.7744C57.2217 52.8219 57.0622 52.0905 56.7432 51.5801C56.4287 51.0697 55.8545 50.8145 55.0205 50.8145C54.3232 50.8145 53.8014 51.0833 53.4551 51.6211C53.1087 52.1543 52.9355 52.8835 52.9355 53.8086C52.9355 54.7292 53.1064 55.4401 53.4482 55.9414C53.7946 56.4427 54.3187 56.6934 55.0205 56.6934Z" fill="#CDCDCD"/>
</svg>
