<svg width="80" height="76" viewBox="0 0 80 76" fill="none" xmlns="http://www.w3.org/2000/svg">
<path d="M48.1818 17.5H31.8182C30.814 17.5 30 18.315 30 19.3191C30 19.3449 30 19.363 30 19.372V35.7356C30 36.7101 30.7909 37.5 31.7653 37.5C31.791 37.5 31.8091 37.5 31.8182 37.5H48.1818C48.1909 37.5 48.209 37.5 48.2347 37.5C49.2091 37.5 50 36.7101 50 35.7356V19.372C50 19.363 50 19.3449 50 19.3191C50 18.315 49.186 17.5 48.1818 17.5ZM41.8182 35.7356H31.8182V28.4629H41.8182V35.7356ZM41.8182 26.6447H31.8182V19.372L41.8182 19.372V26.6447ZM48.1818 35.7356H43.6364V19.372H48.1818V35.7356Z" fill="#CDCDCD"/>
<path d="M15.5068 54.8408C15.5068 55.4333 15.3587 55.9391 15.0625 56.3584C14.7708 56.7731 14.3607 57.0898 13.832 57.3086C13.3034 57.5273 12.6813 57.6367 11.9658 57.6367C11.5876 57.6367 11.2298 57.6185 10.8926 57.582C10.5553 57.5456 10.2454 57.4932 9.96289 57.4248C9.68034 57.3564 9.43197 57.2721 9.21777 57.1719V56.0576C9.55957 56.1989 9.97656 56.3311 10.4688 56.4541C10.9609 56.5726 11.4759 56.6318 12.0137 56.6318C12.515 56.6318 12.9388 56.5658 13.2852 56.4336C13.6315 56.2969 13.8936 56.1032 14.0713 55.8525C14.2536 55.5973 14.3447 55.292 14.3447 54.9365C14.3447 54.5947 14.2695 54.3099 14.1191 54.082C13.9688 53.8496 13.7181 53.64 13.3672 53.4531C13.0208 53.2617 12.5469 53.0589 11.9453 52.8447C11.5215 52.6943 11.1478 52.5303 10.8242 52.3525C10.5007 52.1702 10.2295 51.9652 10.0107 51.7373C9.79199 51.5094 9.62565 51.2451 9.51172 50.9443C9.40234 50.6436 9.34766 50.2995 9.34766 49.9121C9.34766 49.3789 9.4821 48.9232 9.75098 48.5449C10.0244 48.1621 10.4004 47.8704 10.8789 47.6699C11.362 47.4648 11.9157 47.3623 12.54 47.3623C13.0732 47.3623 13.5654 47.4124 14.0166 47.5127C14.4723 47.613 14.8893 47.7474 15.2676 47.916L14.9053 48.9141C14.5452 48.7637 14.1624 48.6383 13.7568 48.5381C13.3558 48.4378 12.9411 48.3877 12.5127 48.3877C12.0843 48.3877 11.722 48.4515 11.4258 48.5791C11.1341 48.7021 10.9108 48.8776 10.7559 49.1055C10.6009 49.3333 10.5234 49.6045 10.5234 49.9189C10.5234 50.2699 10.5964 50.5615 10.7422 50.7939C10.8926 51.0264 11.1296 51.2337 11.4531 51.416C11.7812 51.5938 12.2142 51.7806 12.752 51.9766C13.3398 52.1908 13.8389 52.4186 14.249 52.6602C14.6592 52.8971 14.9714 53.1888 15.1855 53.5352C15.3997 53.877 15.5068 54.3122 15.5068 54.8408ZM23.5664 50.0078V57.5H22.6367L22.4727 56.4473H22.4111C22.2562 56.707 22.0557 56.9258 21.8096 57.1035C21.5635 57.2812 21.2855 57.4134 20.9756 57.5C20.6702 57.5911 20.3444 57.6367 19.998 57.6367C19.4056 57.6367 18.9089 57.541 18.5078 57.3496C18.1068 57.1582 17.8037 56.862 17.5986 56.4609C17.3981 56.0599 17.2979 55.5449 17.2979 54.916V50.0078H18.4463V54.834C18.4463 55.4583 18.5876 55.9255 18.8701 56.2354C19.1527 56.5407 19.5833 56.6934 20.1621 56.6934C20.7181 56.6934 21.1602 56.5885 21.4883 56.3789C21.821 56.1693 22.0602 55.8617 22.2061 55.4561C22.3519 55.0459 22.4248 54.5446 22.4248 53.9521V50.0078H23.5664ZM34.1006 49.8711C34.9255 49.8711 35.5475 50.0876 35.9668 50.5205C36.3861 50.9489 36.5957 51.6393 36.5957 52.5918V57.5H35.4746V52.6465C35.4746 52.0404 35.3424 51.5869 35.0781 51.2861C34.8184 50.9808 34.431 50.8281 33.916 50.8281C33.1914 50.8281 32.665 51.0378 32.3369 51.457C32.0088 51.8763 31.8447 52.4938 31.8447 53.3096V57.5H30.7168V52.6465C30.7168 52.2409 30.6576 51.9036 30.5391 51.6348C30.4251 51.3659 30.252 51.1654 30.0195 51.0332C29.7917 50.8965 29.5023 50.8281 29.1514 50.8281C28.6546 50.8281 28.2559 50.9307 27.9551 51.1357C27.6543 51.3408 27.4355 51.6462 27.2988 52.0518C27.1667 52.4528 27.1006 52.9473 27.1006 53.5352V57.5H25.9658V50.0078H26.8818L27.0527 51.0674H27.1143C27.2646 50.8076 27.4538 50.5889 27.6816 50.4111C27.9095 50.2334 28.1647 50.099 28.4473 50.0078C28.7298 49.9167 29.0306 49.8711 29.3496 49.8711C29.9193 49.8711 30.3955 49.9782 30.7783 50.1924C31.1657 50.402 31.446 50.7233 31.6191 51.1562H31.6807C31.9268 50.7233 32.264 50.402 32.6924 50.1924C33.1208 49.9782 33.5902 49.8711 34.1006 49.8711ZM47.0615 49.8711C47.8864 49.8711 48.5085 50.0876 48.9277 50.5205C49.347 50.9489 49.5566 51.6393 49.5566 52.5918V57.5H48.4355V52.6465C48.4355 52.0404 48.3034 51.5869 48.0391 51.2861C47.7793 50.9808 47.3919 50.8281 46.877 50.8281C46.1523 50.8281 45.626 51.0378 45.2979 51.457C44.9697 51.8763 44.8057 52.4938 44.8057 53.3096V57.5H43.6777V52.6465C43.6777 52.2409 43.6185 51.9036 43.5 51.6348C43.3861 51.3659 43.2129 51.1654 42.9805 51.0332C42.7526 50.8965 42.4632 50.8281 42.1123 50.8281C41.6156 50.8281 41.2168 50.9307 40.916 51.1357C40.6152 51.3408 40.3965 51.6462 40.2598 52.0518C40.1276 52.4528 40.0615 52.9473 40.0615 53.5352V57.5H38.9268V50.0078H39.8428L40.0137 51.0674H40.0752C40.2256 50.8076 40.4147 50.5889 40.6426 50.4111C40.8704 50.2334 41.1257 50.099 41.4082 50.0078C41.6908 49.9167 41.9915 49.8711 42.3105 49.8711C42.8802 49.8711 43.3564 49.9782 43.7393 50.1924C44.1266 50.402 44.4069 50.7233 44.5801 51.1562H44.6416C44.8877 50.7233 45.2249 50.402 45.6533 50.1924C46.0817 49.9782 46.5511 49.8711 47.0615 49.8711ZM54.6904 49.8848C55.5837 49.8848 56.2467 50.0853 56.6797 50.4863C57.1126 50.8874 57.3291 51.5277 57.3291 52.4072V57.5H56.502L56.2832 56.3926H56.2285C56.0189 56.666 55.8001 56.8962 55.5723 57.083C55.3444 57.2653 55.0801 57.4043 54.7793 57.5C54.4831 57.5911 54.1185 57.6367 53.6855 57.6367C53.2298 57.6367 52.8242 57.557 52.4688 57.3975C52.1178 57.238 51.8398 56.9964 51.6348 56.6729C51.4342 56.3493 51.334 55.9391 51.334 55.4424C51.334 54.695 51.6302 54.1208 52.2227 53.7197C52.8151 53.3187 53.7174 53.0999 54.9297 53.0635L56.2217 53.0088V52.5508C56.2217 51.9036 56.0827 51.4502 55.8047 51.1904C55.5267 50.9307 55.1348 50.8008 54.6289 50.8008C54.237 50.8008 53.8633 50.8577 53.5078 50.9717C53.1523 51.0856 52.8151 51.2201 52.4961 51.375L52.1475 50.5137C52.4847 50.3405 52.8721 50.1924 53.3096 50.0693C53.7471 49.9463 54.2074 49.8848 54.6904 49.8848ZM56.208 53.8086L55.0664 53.8564C54.1322 53.8929 53.4736 54.0456 53.0908 54.3145C52.708 54.5833 52.5166 54.9639 52.5166 55.4561C52.5166 55.8844 52.6465 56.2012 52.9062 56.4062C53.166 56.6113 53.5101 56.7139 53.9385 56.7139C54.6038 56.7139 55.1484 56.5293 55.5723 56.1602C55.9961 55.791 56.208 55.2373 56.208 54.499V53.8086ZM63.0713 49.8711C63.2217 49.8711 63.3789 49.8802 63.543 49.8984C63.707 49.9121 63.8529 49.9326 63.9805 49.96L63.8369 51.0127C63.7139 50.9808 63.5771 50.9557 63.4268 50.9375C63.2764 50.9193 63.1351 50.9102 63.0029 50.9102C62.7021 50.9102 62.4173 50.9717 62.1484 51.0947C61.8841 51.2132 61.6517 51.3864 61.4512 51.6143C61.2507 51.8376 61.0934 52.1087 60.9795 52.4277C60.8656 52.7422 60.8086 53.0931 60.8086 53.4805V57.5H59.667V50.0078H60.6104L60.7334 51.3887H60.7812C60.9362 51.1107 61.123 50.8577 61.3418 50.6299C61.5605 50.3975 61.8135 50.2129 62.1006 50.0762C62.3923 49.9395 62.7158 49.8711 63.0713 49.8711ZM64.2129 50.0078H65.4297L67.084 54.3555C67.1797 54.6107 67.2686 54.8568 67.3506 55.0938C67.4326 55.3262 67.5055 55.5495 67.5693 55.7637C67.6331 55.9779 67.6833 56.1852 67.7197 56.3857H67.7676C67.8314 56.1579 67.9225 55.8594 68.041 55.4902C68.1595 55.1165 68.2871 54.736 68.4238 54.3486L69.9893 50.0078H71.2129L67.9521 58.6006C67.779 59.0609 67.5762 59.4619 67.3438 59.8037C67.1159 60.1455 66.8379 60.4076 66.5098 60.5898C66.1816 60.7767 65.7852 60.8701 65.3203 60.8701C65.1061 60.8701 64.917 60.8564 64.7529 60.8291C64.5889 60.8063 64.4476 60.779 64.3291 60.7471V59.8379C64.4294 59.8607 64.5501 59.8812 64.6914 59.8994C64.8372 59.9176 64.9876 59.9268 65.1426 59.9268C65.4251 59.9268 65.6689 59.8721 65.874 59.7627C66.0837 59.6579 66.2637 59.5029 66.4141 59.2979C66.5645 59.0928 66.6943 58.849 66.8037 58.5664L67.2139 57.5137L64.2129 50.0078Z" fill="#CDCDCD"/>
</svg>
