<svg width="80" height="76" viewBox="0 0 80 76" fill="none" xmlns="http://www.w3.org/2000/svg">
<mask id="mask0_388156_2563" style="mask-type:alpha" maskUnits="userSpaceOnUse" x="28" y="15" width="24" height="25">
<rect x="28" y="15.5" width="24" height="24" fill="#D9D9D9"/>
</mask>
<g mask="url(#mask0_388156_2563)">
<path d="M30.3415 39.5151C29.6976 39.5151 29.1464 39.2858 28.6878 38.8273C28.2293 38.3687 28 37.8175 28 37.1736V20.7828C28 20.1389 28.2293 19.5877 28.6878 19.1291C29.1464 18.6706 29.6976 18.4413 30.3415 18.4413H40.7906L38.4491 20.7828H30.3415V37.1736H46.7323V29.0367L49.0738 26.6952V37.1736C49.0738 37.8175 48.8445 38.3687 48.386 38.8273C47.9274 39.2858 47.3762 39.5151 46.7323 39.5151H30.3415ZM43.4249 19.1145L45.0932 20.7536L37.3661 28.4806V30.149H39.0052L46.7615 22.3926L48.4299 24.0317L40.6736 31.788C40.4589 32.0027 40.2101 32.1734 39.9272 32.3003C39.6443 32.4271 39.3467 32.4905 39.0345 32.4905H36.1954C35.8637 32.4905 35.5856 32.3783 35.3612 32.1539C35.1368 31.9295 35.0246 31.6515 35.0246 31.3197V28.4806C35.0246 28.1684 35.0831 27.8709 35.2002 27.5879C35.3173 27.305 35.4832 27.0562 35.6978 26.8416L43.4249 19.1145ZM48.4299 24.0317L43.4249 19.1145L46.3518 16.1876C46.8201 15.7193 47.3811 15.4851 48.0348 15.4851C48.6884 15.4851 49.2397 15.7193 49.6885 16.1876L51.3275 17.8559C51.7763 18.3047 52.0007 18.8511 52.0007 19.495C52.0007 20.1389 51.7763 20.6853 51.3275 21.1341L48.4299 24.0317Z" fill="#CDCDCD"/>
</g>
<path d="M17.6357 57.5L16.4053 54.3281H12.3994L11.1758 57.5H10L13.9102 47.4648H14.9561L18.8389 57.5H17.6357ZM16.0566 53.2959L14.8877 50.1445C14.8604 50.0625 14.8148 49.9281 14.751 49.7412C14.6917 49.5544 14.6302 49.3607 14.5664 49.1602C14.5026 48.9596 14.4502 48.7979 14.4092 48.6748C14.3636 48.8617 14.3135 49.0485 14.2588 49.2354C14.2087 49.4176 14.1585 49.5885 14.1084 49.748C14.0583 49.903 14.015 50.0352 13.9785 50.1445L12.7891 53.2959H16.0566ZM22.7217 57.6367C21.7738 57.6367 21.0218 57.3132 20.4658 56.666C19.9144 56.0189 19.6387 55.0573 19.6387 53.7812C19.6387 52.4915 19.9212 51.5186 20.4863 50.8623C21.0514 50.2015 21.8034 49.8711 22.7422 49.8711C23.1387 49.8711 23.485 49.9235 23.7812 50.0283C24.0775 50.1331 24.3327 50.2744 24.5469 50.4521C24.7611 50.6253 24.9411 50.8236 25.0869 51.0469H25.1689C25.1507 50.9056 25.1325 50.7119 25.1143 50.4658C25.096 50.2197 25.0869 50.0192 25.0869 49.8643V46.8633H26.2217V57.5H25.3057L25.1348 56.4336H25.0869C24.9456 56.6569 24.7656 56.8597 24.5469 57.042C24.3327 57.2243 24.0752 57.3701 23.7744 57.4795C23.4782 57.5843 23.1273 57.6367 22.7217 57.6367ZM22.8994 56.6934C23.7015 56.6934 24.2689 56.4655 24.6016 56.0098C24.9342 55.554 25.1006 54.8773 25.1006 53.9795V53.7744C25.1006 52.8219 24.9411 52.0905 24.6221 51.5801C24.3076 51.0697 23.7334 50.8145 22.8994 50.8145C22.2021 50.8145 21.6803 51.0833 21.334 51.6211C20.9876 52.1543 20.8145 52.8835 20.8145 53.8086C20.8145 54.7292 20.9854 55.4401 21.3271 55.9414C21.6735 56.4427 22.1976 56.6934 22.8994 56.6934ZM31.2939 57.6367C30.346 57.6367 29.5941 57.3132 29.0381 56.666C28.4867 56.0189 28.2109 55.0573 28.2109 53.7812C28.2109 52.4915 28.4935 51.5186 29.0586 50.8623C29.6237 50.2015 30.3757 49.8711 31.3145 49.8711C31.7109 49.8711 32.0573 49.9235 32.3535 50.0283C32.6497 50.1331 32.9049 50.2744 33.1191 50.4521C33.3333 50.6253 33.5133 50.8236 33.6592 51.0469H33.7412C33.723 50.9056 33.7048 50.7119 33.6865 50.4658C33.6683 50.2197 33.6592 50.0192 33.6592 49.8643V46.8633H34.7939V57.5H33.8779L33.707 56.4336H33.6592C33.5179 56.6569 33.3379 56.8597 33.1191 57.042C32.9049 57.2243 32.6475 57.3701 32.3467 57.4795C32.0505 57.5843 31.6995 57.6367 31.2939 57.6367ZM31.4717 56.6934C32.2738 56.6934 32.8411 56.4655 33.1738 56.0098C33.5065 55.554 33.6729 54.8773 33.6729 53.9795V53.7744C33.6729 52.8219 33.5133 52.0905 33.1943 51.5801C32.8799 51.0697 32.3057 50.8145 31.4717 50.8145C30.7744 50.8145 30.2526 51.0833 29.9062 51.6211C29.5599 52.1543 29.3867 52.8835 29.3867 53.8086C29.3867 54.7292 29.5576 55.4401 29.8994 55.9414C30.2458 56.4427 30.7699 56.6934 31.4717 56.6934ZM44.0771 57.5H42.9082V48.5312H39.7637V47.5059H47.208V48.5312H44.0771V57.5ZM51.3506 49.8848C52.2438 49.8848 52.9069 50.0853 53.3398 50.4863C53.7728 50.8874 53.9893 51.5277 53.9893 52.4072V57.5H53.1621L52.9434 56.3926H52.8887C52.679 56.666 52.4603 56.8962 52.2324 57.083C52.0046 57.2653 51.7402 57.4043 51.4395 57.5C51.1432 57.5911 50.7786 57.6367 50.3457 57.6367C49.89 57.6367 49.4844 57.557 49.1289 57.3975C48.778 57.238 48.5 56.9964 48.2949 56.6729C48.0944 56.3493 47.9941 55.9391 47.9941 55.4424C47.9941 54.695 48.2904 54.1208 48.8828 53.7197C49.4753 53.3187 50.3776 53.0999 51.5898 53.0635L52.8818 53.0088V52.5508C52.8818 51.9036 52.7428 51.4502 52.4648 51.1904C52.1868 50.9307 51.7949 50.8008 51.2891 50.8008C50.8971 50.8008 50.5234 50.8577 50.168 50.9717C49.8125 51.0856 49.4753 51.2201 49.1562 51.375L48.8076 50.5137C49.1449 50.3405 49.5322 50.1924 49.9697 50.0693C50.4072 49.9463 50.8675 49.8848 51.3506 49.8848ZM52.8682 53.8086L51.7266 53.8564C50.7923 53.8929 50.1338 54.0456 49.751 54.3145C49.3682 54.5833 49.1768 54.9639 49.1768 55.4561C49.1768 55.8844 49.3066 56.2012 49.5664 56.4062C49.8262 56.6113 50.1702 56.7139 50.5986 56.7139C51.264 56.7139 51.8086 56.5293 52.2324 56.1602C52.6562 55.791 52.8682 55.2373 52.8682 54.499V53.8086ZM61.1738 55.4492C61.1738 55.9277 61.0531 56.3311 60.8115 56.6592C60.5745 56.9827 60.2327 57.2266 59.7861 57.3906C59.3441 57.5547 58.8154 57.6367 58.2002 57.6367C57.6761 57.6367 57.2227 57.5957 56.8398 57.5137C56.457 57.4316 56.1221 57.3154 55.835 57.165V56.1191C56.1403 56.2695 56.5049 56.4062 56.9287 56.5293C57.3525 56.6523 57.7855 56.7139 58.2275 56.7139C58.8747 56.7139 59.3441 56.609 59.6357 56.3994C59.9274 56.1898 60.0732 55.9049 60.0732 55.5449C60.0732 55.3398 60.014 55.1598 59.8955 55.0049C59.7816 54.8454 59.5879 54.6927 59.3145 54.5469C59.041 54.3965 58.6628 54.2324 58.1797 54.0547C57.7012 53.8724 57.2865 53.6924 56.9355 53.5146C56.5892 53.3324 56.3203 53.1113 56.1289 52.8516C55.9421 52.5918 55.8486 52.2546 55.8486 51.8398C55.8486 51.2064 56.1038 50.721 56.6143 50.3838C57.1292 50.042 57.8037 49.8711 58.6377 49.8711C59.0889 49.8711 59.5104 49.9167 59.9023 50.0078C60.2988 50.0944 60.668 50.2129 61.0098 50.3633L60.627 51.2725C60.3171 51.1403 59.9867 51.0286 59.6357 50.9375C59.2848 50.8464 58.9271 50.8008 58.5625 50.8008C58.0384 50.8008 57.6351 50.8874 57.3525 51.0605C57.0745 51.2337 56.9355 51.4707 56.9355 51.7715C56.9355 52.0039 56.9993 52.1953 57.127 52.3457C57.2591 52.4961 57.4688 52.6374 57.7559 52.7695C58.043 52.9017 58.4212 53.0566 58.8906 53.2344C59.36 53.4076 59.7656 53.5876 60.1074 53.7744C60.4492 53.9567 60.7113 54.18 60.8936 54.4443C61.0804 54.7041 61.1738 55.0391 61.1738 55.4492ZM64.127 46.8633V52.3867C64.127 52.569 64.1201 52.7923 64.1064 53.0566C64.0928 53.3164 64.0814 53.5465 64.0723 53.7471H64.1201C64.2158 53.6286 64.3548 53.4531 64.5371 53.2207C64.724 52.9883 64.8812 52.8014 65.0088 52.6602L67.4971 50.0078H68.8301L65.8154 53.207L69.0488 57.5H67.6816L65.0361 53.9521L64.127 54.7861V57.5H62.999V46.8633H64.127Z" fill="#CDCDCD"/>
</svg>
